<svg width="15" height="44" viewBox="0 0 15 44" fill="none" xmlns="http://www.w3.org/2000/svg">
<g clip-path="url(#clip0_0_379)">
<path d="M12.2278 16.0283H11.2073C11.0979 15.2173 10.7015 14.4723 10.0901 13.9284C9.47863 13.3845 8.69254 13.0776 7.8743 13.0635C7.05606 13.0776 6.26996 13.3845 5.65851 13.9284C5.04705 14.4723 4.6507 15.2173 4.5413 16.0283H3.5213C2.96009 16.0286 2.42196 16.2517 2.02504 16.6485C1.62813 17.0452 1.40488 17.5833 1.4043 18.1445V25.86C1.4048 26.4211 1.6279 26.9591 2.02464 27.356C2.42138 27.7528 2.95935 27.976 3.5205 27.9767H12.2275C12.7887 27.9762 13.3269 27.753 13.7237 27.3562C14.1206 26.9593 14.3438 26.4212 14.3443 25.86V18.1445C14.3437 17.5834 14.1205 17.0454 13.7237 16.6486C13.3269 16.2519 12.7889 16.0288 12.2278 16.0283ZM7.8743 14.1631C8.40171 14.1745 8.90941 14.3656 9.31348 14.7048C9.71755 15.0439 9.99377 15.5108 10.0965 16.0283H5.6521C5.75482 15.5108 6.03105 15.0439 6.43511 14.7048C6.83918 14.3656 7.34689 14.1745 7.8743 14.1631ZM13.2443 25.86C13.244 26.1296 13.1368 26.388 12.9463 26.5787C12.7557 26.7693 12.4973 26.8767 12.2277 26.8771H3.5208C3.25124 26.8766 2.99286 26.7693 2.80231 26.5786C2.61176 26.388 2.50459 26.1295 2.5043 25.86V18.1445C2.50461 17.875 2.61182 17.6166 2.8024 17.426C2.99298 17.2354 3.25138 17.1282 3.5209 17.1279H12.2279C12.4974 17.1282 12.7557 17.2355 12.9463 17.4261C13.1368 17.6166 13.244 17.875 13.2443 18.1445V25.86Z" fill="white" fill-opacity="0.8"/>
</g>
<defs>
<clipPath id="clip0_0_379">
<rect width="14" height="44" fill="white" transform="translate(0.875)"/>
</clipPath>
</defs>
</svg>
