<svg width="16" height="44" viewBox="0 0 16 44" fill="none" xmlns="http://www.w3.org/2000/svg">
<path d="M15.266 27.2022L11.396 23.3322C12.097 22.4032 12.518 21.2512 12.518 20.0002C12.518 16.9402 10.029 14.4502 6.96797 14.4502C3.90797 14.4502 1.41797 16.9402 1.41797 20.0002C1.41797 23.0612 3.90797 25.5502 6.96797 25.5502C8.21897 25.5502 9.37097 25.1292 10.3 24.4282L14.17 28.2982C14.321 28.4492 14.52 28.5262 14.718 28.5262C14.916 28.5262 15.114 28.4502 15.266 28.2982C15.569 27.9952 15.569 27.5052 15.266 27.2022ZM2.51797 20.0002C2.51797 17.5462 4.51497 15.5502 6.96797 15.5502C9.42197 15.5502 11.418 17.5472 11.418 20.0002C11.418 22.4532 9.42197 24.4502 6.96797 24.4502C4.51397 24.4502 2.51797 22.4542 2.51797 20.0002Z" fill="white" fill-opacity="0.8"/>
</svg>
